# xmcd CD database file
#
# Track frame offsets:
#	150
#	18657
#	40704
#	63508
#	85595
#	103047
#	126252
#	151339
#	178348
#	209430
#	226747
#	235627
#	250551
#	276883
#	290470
#
# Disc length: 4053 seconds
#
# Revision: 0
# Processed by: cddbd v1.5.1PL0 Copyright (c) Steve Scherf et al.
# Submitted via: CDex 1.51
#
DISCID=c70fd30f
DTITLE=SOUVENIR - 竹内まりや
DYEAR=2000
DGENRE=J-POP
TTITLE0=アンフィシアターの夜
TTITLE1=家に帰ろう
TTITLE2=FOREVER FRIENDS
TTITLE3=マンハッタン・キス
TTITLE4=五線紙
TTITLE5=元気を出して
TTITLE6=カムフラージュ
TTITLE7=プラスティック・ラブ
TTITLE8=駅
TTITLE9=リンダ（ア・カペラ）
TTITLE10=不思議なピーチパイ
TTITLE11=SEPTEMBER
TTITLE12=J-BOY
TTITLE13=LET IT BE ME (Duet with 山下達郎)
TTITLE14=CLOSING〜純愛ラプソディ (Instrumental)
EXTD=YEAR: 2000
EXTT0=
EXTT1=
EXTT2=
EXTT3=
EXTT4=
EXTT5=
EXTT6=
EXTT7=
EXTT8=
EXTT9=
EXTT10=
EXTT11=
EXTT12=
EXTT13=
EXTT14=
PLAYORDER=
